<?xml version="1.0" standalone="no"?>
<!DOCTYPE svg PUBLIC "-//W3C//DTD SVG 20010904//EN"
 "http://www.w3.org/TR/2001/REC-SVG-20010904/DTD/svg10.dtd">
<svg version="1.0" xmlns="http://www.w3.org/2000/svg"
 width="300.000000pt" height="300.000000pt" viewBox="0 0 300.000000 300.000000"
 preserveAspectRatio="xMidYMid meet">
<metadata>
Created by potrace 1.11, written by Peter Selinger 2001-2013
</metadata>
<g transform="translate(0.000000,300.000000) scale(0.100000,-0.100000)"
fill="#000000" stroke="none">
<path d="M0 1500 l0 -1500 1500 0 1500 0 0 1500 0 1500 -1500 0 -1500 0 0
-1500z m2029 964 c273 -50 511 -201 654 -416 61 -92 63 -88 -49 -88 -55 0
-109 -3 -122 -6 -13 -4 -70 -66 -136 -148 -62 -77 -129 -158 -147 -178 l-34
-37 -120 16 c-103 13 -141 14 -265 3 -255 -22 -367 -64 -540 -204 -144 -116
-242 -233 -256 -306 -4 -16 -10 -30 -14 -30 -5 0 -21 33 -36 72 -27 71 -28 72
-36 43 -50 -165 -188 -292 -342 -314 -202 -29 -352 70 -412 269 -27 92 -27
319 0 405 33 105 99 191 179 233 22 12 51 40 67 66 16 25 48 58 72 73 40 26
50 28 144 28 87 0 107 -3 149 -25 51 -26 85 -63 121 -130 l22 -40 17 52 c49
154 140 295 262 408 39 36 77 70 84 75 25 18 74 49 96 62 12 6 35 18 50 27 72
39 147 64 258 86 116 23 227 24 334 4z m751 -590 c0 -9 6 -30 14 -47 44 -98
69 -336 48 -467 -15 -91 -32 -163 -43 -174 -5 -6 -9 -17 -9 -26 0 -23 -60
-137 -115 -219 -39 -57 -157 -181 -217 -226 -22 -17 -72 -49 -95 -62 -12 -6
-35 -18 -50 -27 -73 -39 -169 -71 -274 -90 -306 -56 -630 47 -855 271 -53 54
-167 203 -160 210 3 3 29 -7 58 -21 128 -63 278 -82 402 -50 73 18 147 44 161
56 18 16 46 8 73 -21 50 -53 75 -63 139 -56 106 11 252 35 316 51 67 17 293
91 316 104 20 11 2 19 -86 36 -95 18 -104 16 -248 -46 -44 -19 -127 -42 -132
-36 -3 3 64 85 148 183 171 198 199 231 214 247 8 9 213 245 349 404 23 26 46
29 46 6z m-701 -343 c24 -3 46 -11 48 -17 8 -23 -174 -212 -287 -299 -116 -88
-247 -148 -387 -175 -55 -11 -66 -10 -100 6 -50 25 -54 58 -17 121 32 55 60
89 134 161 146 142 234 187 420 216 26 4 111 -2 189 -13z"/>
<path d="M476 1649 c-2 -8 -9 -29 -15 -48 -18 -55 -14 -311 6 -382 29 -106 89
-139 137 -76 33 43 51 164 43 298 -6 108 -24 158 -68 190 -37 26 -97 37 -103
18z"/>
</g>
</svg>
