<?xml version="1.0" standalone="no"?>
<!DOCTYPE svg PUBLIC "-//W3C//DTD SVG 20010904//EN"
 "http://www.w3.org/TR/2001/REC-SVG-20010904/DTD/svg10.dtd">
<svg version="1.0" xmlns="http://www.w3.org/2000/svg"
 width="200.000000pt" height="200.000000pt" viewBox="0 0 200.000000 200.000000"
 preserveAspectRatio="xMidYMid meet">
<metadata>
Created by potrace 1.16, written by Peter Selinger 2001-2019
</metadata>
<g transform="translate(0.000000,200.000000) scale(0.100000,-0.100000)"
fill="#000000" stroke="none">
<path d="M0 1000 l0 -1000 1000 0 1000 0 0 1000 0 1000 -1000 0 -1000 0 0
-1000z m1415 634 c95 -23 198 -80 274 -150 63 -58 131 -145 131 -166 0 -4 -30
-8 -66 -8 -36 0 -73 -4 -83 -10 -10 -5 -60 -61 -111 -124 -86 -106 -96 -115
-119 -108 -14 4 -89 7 -166 6 -214 -1 -308 -34 -454 -157 -79 -66 -136 -139
-149 -190 l-8 -32 -19 46 -19 46 -22 -47 c-26 -57 -80 -112 -137 -142 -32 -17
-60 -22 -117 -22 -114 -1 -175 38 -222 139 -20 44 -23 65 -23 185 0 132 1 136
31 190 20 36 47 66 79 88 27 18 57 46 66 62 62 101 273 81 319 -30 l13 -30 31
73 c40 91 79 147 150 217 161 158 393 219 621 164z m450 -408 c26 -61 36 -129
36 -231 -1 -190 -56 -321 -190 -456 -134 -134 -273 -192 -461 -192 -117 -1
-182 14 -285 63 -116 56 -218 148 -280 252 l-19 33 26 -17 c46 -30 145 -58
207 -58 37 0 92 10 142 26 l81 26 30 -29 c26 -25 35 -28 90 -25 87 3 243 37
344 74 95 34 96 43 2 54 -48 6 -67 2 -138 -25 -45 -18 -86 -31 -92 -29 -10 4
471 566 485 567 4 1 14 -14 22 -33z m-447 -211 c9 -8 -43 -68 -123 -143 -93
-87 -186 -142 -281 -167 -76 -20 -97 -19 -125 4 -21 17 -22 20 -9 52 19 45
152 178 214 214 72 42 137 55 236 49 47 -3 86 -7 88 -9z"/>
<path d="M315 1083 c-13 -34 -17 -178 -6 -237 12 -66 35 -98 65 -94 29 4 48
50 54 129 7 100 -5 157 -38 191 -32 32 -64 36 -75 11z"/>
</g>
</svg>
