<?xml version="1.0" standalone="no"?>
<!DOCTYPE svg PUBLIC "-//W3C//DTD SVG 20010904//EN"
 "http://www.w3.org/TR/2001/REC-SVG-20010904/DTD/svg10.dtd">
<svg version="1.0" xmlns="http://www.w3.org/2000/svg"
 width="1400.000000pt" height="500.000000pt" viewBox="0 0 1400.000000 500.000000"
 preserveAspectRatio="xMidYMid meet">
<metadata>
Created by potrace 1.16, written by Peter Selinger 2001-2019
</metadata>
<g transform="translate(0.000000,500.000000) scale(0.100000,-0.100000)"
fill="#000000" stroke="none">
<path d="M0 2500 l0 -2500 7000 0 7000 0 0 2500 0 2500 -7000 0 -7000 0 0
-2500z m8500 25 l0 -765 -22 -5 c-121 -29 -184 -38 -313 -42 -121 -4 -163 -2
-215 12 -185 48 -314 182 -361 375 -18 75 -15 249 5 333 76 320 365 450 699
312 16 -7 17 9 17 254 l0 261 23 5 c43 10 122 23 145 24 l22 1 0 -765z m-3126
275 c231 -34 342 -184 362 -488 l7 -102 -363 0 -363 0 6 -55 c6 -62 41 -145
79 -190 33 -39 100 -72 174 -86 77 -15 213 -5 295 21 35 11 65 20 65 20 3 0
24 -126 24 -143 0 -16 -54 -37 -148 -56 -78 -16 -258 -14 -326 4 -239 62 -365
246 -366 531 0 293 155 501 408 544 66 11 69 11 146 0z m3951 0 c231 -34 354
-207 355 -497 l0 -93 -354 0 c-195 0 -357 -4 -360 -8 -10 -16 24 -145 49 -187
32 -56 87 -100 150 -122 74 -26 267 -23 355 5 35 12 65 20 66 19 0 -1 6 -35
13 -76 9 -60 9 -76 -1 -82 -7 -5 -52 -18 -99 -29 -107 -25 -277 -27 -364 -5
-187 48 -306 171 -351 361 -23 97 -15 305 15 388 66 185 196 298 376 326 71
11 72 11 150 0z m-6264 -16 c137 -41 231 -119 292 -244 89 -179 89 -400 1
-578 -170 -347 -679 -349 -853 -3 -47 91 -64 171 -64 291 -1 174 43 297 143
404 96 102 197 144 346 145 47 1 103 -6 135 -15z m1167 1 c240 -57 382 -254
382 -535 0 -237 -100 -421 -273 -500 -63 -30 -84 -34 -177 -38 -104 -4 -147 4
-272 53 -17 7 -18 -7 -18 -199 l0 -206 -90 0 -90 0 0 685 c0 377 0 688 -1 693
-1 9 66 28 166 46 107 19 294 20 373 1z m2385 -15 c120 -46 191 -129 223 -264
14 -58 18 -135 22 -423 l4 -353 -95 0 -95 0 -4 348 c-4 297 -7 355 -22 402
-23 69 -76 124 -136 140 -48 13 -286 11 -307 -3 -10 -6 -13 -107 -13 -448 l0
-439 -90 0 -90 0 0 509 0 509 48 10 c44 10 140 26 207 36 17 2 89 3 160 1 106
-2 141 -6 188 -25z m4896 6 c29 -8 55 -17 58 -20 3 -3 -2 -39 -12 -81 -14 -64
-19 -75 -33 -70 -106 44 -278 53 -354 18 -59 -27 -84 -71 -73 -129 10 -58 64
-103 171 -144 219 -83 293 -130 337 -214 31 -60 31 -204 0 -262 -32 -59 -95
-110 -172 -136 -58 -20 -85 -23 -231 -23 -148 0 -172 3 -235 24 -38 13 -72 25
-73 27 -7 5 30 154 37 154 5 0 34 -10 67 -21 43 -16 91 -23 179 -26 133 -6
189 4 232 41 24 21 28 32 28 79 0 89 -37 118 -282 221 -184 78 -247 152 -245
290 0 41 7 87 16 109 35 80 125 152 223 177 55 14 298 5 362 -14z m-1428 -196
c88 -299 212 -632 228 -614 24 24 188 500 246 712 l28 102 94 0 c61 0 93 -4
93 -11 0 -19 -57 -207 -104 -344 -54 -158 -103 -284 -203 -517 l-76 -178 -87
0 c-85 0 -87 1 -99 28 -52 111 -169 394 -219 528 -59 158 -152 451 -152 480 0
12 17 14 97 12 l96 -3 58 -195z"/>
<path d="M8000 2631 c-57 -12 -121 -53 -157 -99 -42 -56 -63 -126 -70 -234
-13 -198 54 -337 192 -400 41 -18 68 -22 150 -23 55 0 121 4 148 8 l47 8 0
334 0 335 -24 15 c-70 46 -208 73 -286 56z"/>
<path d="M5235 2641 c-103 -27 -189 -126 -210 -243 l-7 -38 262 0 263 0 -6 54
c-9 91 -59 171 -129 207 -42 21 -129 32 -173 20z"/>
<path d="M9171 2639 c-84 -25 -153 -98 -185 -193 -32 -93 -51 -86 244 -86 295
0 270 -9 249 89 -14 68 -59 134 -112 165 -50 30 -142 41 -196 25z"/>
<path d="M2857 2630 c-57 -15 -90 -35 -130 -79 -46 -51 -64 -86 -82 -163 -41
-176 2 -369 102 -458 68 -60 185 -81 278 -50 58 19 128 90 161 163 25 55 28
76 32 187 4 109 1 133 -18 190 -44 131 -130 206 -246 215 -33 2 -76 0 -97 -5z"/>
<path d="M3969 2630 c-42 -4 -82 -11 -88 -14 -8 -5 -11 -105 -11 -336 l0 -329
43 -25 c64 -38 161 -60 230 -52 177 18 267 143 269 371 1 116 -16 188 -62 257
-71 107 -192 147 -381 128z"/>
</g>
</svg>
