<?xml version="1.0" standalone="no"?>
<!DOCTYPE svg PUBLIC "-//W3C//DTD SVG 20010904//EN"
 "http://www.w3.org/TR/2001/REC-SVG-20010904/DTD/svg10.dtd">
<svg version="1.0" xmlns="http://www.w3.org/2000/svg"
 width="200.000000pt" height="200.000000pt" viewBox="0 0 200.000000 200.000000"
 preserveAspectRatio="xMidYMid meet">
<metadata>
Created by potrace 1.16, written by Peter Selinger 2001-2019
</metadata>
<g transform="translate(0.000000,200.000000) scale(0.100000,-0.100000)"
fill="#000000" stroke="none">
<path d="M0 1000 l0 -1000 1000 0 1000 0 0 1000 0 1000 -1000 0 -1000 0 0
-1000z m1385 635 c119 -25 228 -86 320 -179 44 -45 88 -96 98 -113 l18 -33
-66 0 c-37 0 -74 -4 -84 -10 -10 -5 -60 -61 -111 -124 -86 -106 -96 -115 -119
-108 -14 4 -89 7 -166 6 -209 -1 -294 -29 -437 -142 -83 -66 -129 -119 -157
-182 l-18 -41 -19 50 -18 51 -15 -37 c-36 -93 -121 -175 -198 -189 -69 -13
-150 0 -195 32 -76 53 -104 113 -115 240 -12 145 36 272 120 320 20 11 47 35
59 54 69 100 239 93 307 -14 l28 -46 18 48 c114 306 432 483 750 417z m487
-447 c30 -95 32 -272 4 -363 -25 -84 -70 -171 -122 -234 -271 -330 -776 -318
-1029 24 -41 56 -51 81 -23 57 28 -22 140 -52 197 -52 37 0 92 10 142 26 l81
26 30 -29 c26 -25 35 -28 90 -25 87 3 243 37 344 74 95 34 96 43 2 54 -48 6
-67 2 -138 -25 -45 -18 -86 -31 -92 -29 -10 4 471 566 484 567 4 1 18 -32 30
-71z m-454 -173 c9 -8 -43 -68 -123 -143 -93 -87 -186 -142 -281 -167 -76 -20
-97 -19 -125 4 -21 17 -22 20 -9 52 19 45 152 178 214 214 72 42 137 55 236
49 47 -3 86 -7 88 -9z"/>
<path d="M313 1094 c-5 -11 -8 -81 -8 -156 0 -123 2 -139 21 -165 31 -42 64
-38 88 11 14 29 19 62 19 135 1 124 -20 170 -85 186 -22 6 -30 3 -35 -11z"/>
</g>
</svg>
